# xmcd CD database file
#
# Track frame offsets:
#	150
#	18887
#	37500
#
# Disc length: 741 seconds
#
# Revision: 0
# Processed by: cddbd v1.5.1PL0 Copyright (c) Steve Scherf et al.
# Submitted via: CDex 1.51
#
DISCID=0f02e303
DTITLE=加藤茶 - 加トちゃんのスキャットマン
DYEAR=1995
DGENRE=Pop
TTITLE0=加トちゃんのスキャットマン　(CHA-MAN'S BASIC MIX)
TTITLE1=加トちゃんのスキャットマン　(CHA-MAN'S REGGAE MIX)
TTITLE2=加トちゃんのスキャットマン　(CHA-MAN'S MIX KARAOKE)
EXTD=YEAR: 1995
EXTT0=
EXTT1=
EXTT2=
PLAYORDER=
